PathFileType	4	(X/Y/Z)	C:\Users\Basilio\Documents\Thesis Gigler\squatting_fais\c3dfiles\039\SLS_pre_front5\markers_experimental.trc
DataRate	CameraRate	NumFrames	NumMarkers	Units	OrigDataRate	OrigDataStartFrame	OrigNumFrames
200.000000	200.000000	4	63	mm	200.000000	1743	1992
Frame#	Time	FHD			LBHD			RBHD			C7			T10			LSHO			LUUPA			LMUPA			LDUPA			LLEP			LMEP			LUL			LRFIN			RSHO			RUPA1			RMUPA			RDUPA			RLEP			RMEP			RRAD			RUL			RUFIN			LASI			RASI			USACR			LSACR			RSACR			LTHI1			LTHI2			LTHI3			LTHI4			LLFC			LMFC			LTIB1			LTIB2			LTIB3			LTIB4			LLMAL			LMMAL			LHEE			LMT1			LMT2			LMT5			RTHI			RTHI2			RTHI3			RTHI4			RLFC			RMFC			RTIB1			RTIB2			RTIB3			RTIB4			RLMAL			RMMAL			RHEE			RMT1			RMT2			RMT5			LRAD			CLAV			*61			*62			
		X1	Y1	Z1	X2	Y2	Z2	X3	Y3	Z3	X4	Y4	Z4	X5	Y5	Z5	X6	Y6	Z6	X7	Y7	Z7	X8	Y8	Z8	X9	Y9	Z9	X10	Y10	Z10	X11	Y11	Z11	X12	Y12	Z12	X13	Y13	Z13	X14	Y14	Z14	X15	Y15	Z15	X16	Y16	Z16	X17	Y17	Z17	X18	Y18	Z18	X19	Y19	Z19	X20	Y20	Z20	X21	Y21	Z21	X22	Y22	Z22	X23	Y23	Z23	X24	Y24	Z24	X25	Y25	Z25	X26	Y26	Z26	X27	Y27	Z27	X28	Y28	Z28	X29	Y29	Z29	X30	Y30	Z30	X31	Y31	Z31	X32	Y32	Z32	X33	Y33	Z33	X34	Y34	Z34	X35	Y35	Z35	X36	Y36	Z36	X37	Y37	Z37	X38	Y38	Z38	X39	Y39	Z39	X40	Y40	Z40	X41	Y41	Z41	X42	Y42	Z42	X43	Y43	Z43	X44	Y44	Z44	X45	Y45	Z45	X46	Y46	Z46	X47	Y47	Z47	X48	Y48	Z48	X49	Y49	Z49	X50	Y50	Z50	X51	Y51	Z51	X52	Y52	Z52	X53	Y53	Z53	X54	Y54	Z54	X55	Y55	Z55	X56	Y56	Z56	X57	Y57	Z57	X58	Y58	Z58	X59	Y59	Z59	X60	Y60	Z60	X61	Y61	Z61	X62	Y62	Z62	X63	Y63	Z63	

1744	8.715	-273.8575744628907	1652.89404296875	-551.5864257812501	-396.1686401367189	1741.12060546875	-684.8911743164064	-394.7547302246095	1709.336791992188	-545.7448120117189	-519.8996582031251	1585.458374023438	-668.0007934570314	-572.7208251953126	1269.822265625	-736.7675170898439	-426.9913635253907	1588.316284179688	-855.5109863281252	-465.5525207519532	1413.041625976563	-1017.065612792969	-418.3987426757814	1406.535034179688	-1026.588623046875	-443.5221252441407	1361.222778320313	-1056.80908203125	-418.5155334472657	1310.653198242188	-1094.10791015625	-440.0913085937501	1256.303466796875	-1031.44140625	-196.9581604003907	1141.461669921875	-1138.500366210938	-89.62925720214845	1129.373413085938	-1084.426513671875	-404.1021423339845	1530.48046875	-499.6708068847657	-430.538299560547	1291.0234375	-469.2026672363282	-383.0550231933594	1280.086669921875	-471.3284606933595	-409.3739624023439	1227.7685546875	-487.5232543945314	-384.670623779297	1172.853637695313	-498.0081481933595	-386.2814025878907	1177.18603515625	-576.9033203125001	-163.3644714355469	973.3939208984377	-505.688934326172	-226.7913818359376	933.3837890625002	-496.8020324707032	-121.6746444702149	905.5132446289065	-461.001190185547	-407.3719177246095	1104.086791992188	-871.4588012695315	-394.1859436035157	1093.693725585938	-644.1262207031251	-587.3417968750001	1124.374877929688	-743.8464355468751	-589.5294189453126	1093.27099609375	-772.766784667969	-586.8256835937501	1092.67919921875	-714.2879028320314	-291.3904113769532	901.5556640625002	-963.4173583984377	-207.4890289306641	886.7813720703127	-970.693298339844	-182.1463317871094	926.084899902344	-963.5850219726565	-178.7298126220703	832.9278564453127	-963.681823730469	-83.63616180419923	764.5048217773439	-965.2917480468752	-31.83101463317872	768.361511230469	-858.084655761719	49.15249633789064	676.3146972656251	-956.6587524414065	8.129479408264162	604.5684814453126	-989.786071777344	46.37913131713868	622.7977294921876	-978.3779907226565	91.88563537597658	556.1589355468751	-940.620788574219	116.9624252319336	376.2926635742188	-968.0533447265627	150.4172668457032	391.9862365722657	-888.2356567382815	113.0970916748047	287.1587219238282	-918.8633422851565	279.3600158691407	447.7980346679689	-957.338806152344	262.1840209960938	445.9712829589845	-995.8318481445315	230.451889038086	397.9605712890626	-1038.082275390625	-400.5864257812501	813.7877197265627	-584.1697387695314	-351.1713867187501	769.433776855469	-580.4691772460939	-320.5163879394532	779.6406250000002	-582.8974609375001	-359.6654663085938	685.3042602539064	-596.1611328125001	-367.7873535156251	542.8229980468751	-633.2107543945314	-313.8514404296876	546.4071655273439	-740.0172119140626	-322.9308166503907	334.1154479980469	-659.5627441406251	-405.2697753906251	268.5441589355469	-677.5104980468751	-359.9608154296876	260.2370605468751	-669.1851806640626	-334.5429687500001	214.0738677978516	-698.7519531250001	-395.7334899902345	113.4375686645508	-699.8969726562501	-355.8773498535157	146.8558044433594	-773.0206298828127	-454.6709594726564	99.54630279541018	-765.3980712890626	-229.3144073486329	83.80059814453126	-756.4808349609376	-234.6571655273438	76.16379547119142	-710.3890991210939	-291.8555297851563	36.4186134338379	-677.2798461914064	-169.5685577392578	1161.575439453125	-1071.049560546875	-388.7457580566407	1495.440185546875	-684.8691406250001	nan	nan	nan	nan	nan	nan	
1745	8.720000000000001	-273.4262084960938	1652.7978515625	-552.1822509765626	-396.6153564453126	1740.48046875	-684.9908447265626	-394.3489990234376	1709.340209960938	-546.3221435546876	-519.7647705078126	1585.342407226563	-668.1604003906251	-572.6058349609376	1269.707275390625	-736.7115478515626	-427.321014404297	1588.271606445313	-855.9365844726565	-466.183563232422	1413.452270507813	-1017.310302734375	-418.9727478027345	1406.521484375	-1027.029052734375	-444.1102600097657	1361.180786132813	-1057.288452148438	-419.050018310547	1310.580200195313	-1094.521728515625	-440.565399169922	1256.239990234375	-1031.794067382813	-197.3717956542969	1141.661376953125	-1138.91845703125	-90.85572052001955	1129.747192382813	-1084.884643554688	-403.5350036621095	1530.524047851563	-500.1518554687501	-429.1343688964845	1291.188354492188	-469.6355285644532	-381.9875183105469	1280.063354492188	-472.4052734375001	-407.6777648925782	1227.743408203125	-488.0393676757814	-383.0670471191407	1172.903564453125	-498.5302734375001	-383.3946228027344	1177.49560546875	-577.5159912109376	-161.1638488769532	974.386901855469	-507.0764160156251	-224.3692016601563	934.378356933594	-497.7947082519532	-118.9849472045899	906.5539550781252	-462.3843078613282	-407.0105285644532	1104.2509765625	-871.5922851562502	-393.826141357422	1093.57275390625	-644.3516845703126	-587.0957031250001	1124.185424804688	-743.8436279296876	-589.4132690429689	1092.85009765625	-772.8328247070315	-586.6660156250001	1092.578002929688	-714.2556152343751	-290.5817260742188	901.9883422851565	-963.2625122070315	-206.7175445556641	887.434265136719	-970.5750122070315	-181.4971313476563	926.793395996094	-963.3232421875002	-178.0101165771485	833.3777465820315	-963.4943847656252	-82.68354797363283	765.4431762695314	-965.191101074219	-31.13134956359864	769.1763916015627	-857.7756958007815	50.46398925781251	677.6837158203126	-956.4895629882815	9.57030773162842	605.6320190429689	-989.4707641601565	47.91329956054688	623.9404296875001	-978.5513305664065	93.35790252685548	557.6592407226564	-940.5546875000002	119.0802001953125	377.8770446777344	-968.261413574219	152.318603515625	393.3911743164064	-888.2041625976565	115.4218521118164	288.6524047851563	-919.1715087890627	281.1635131835938	449.6380004882814	-957.1043701171877	263.9796752929688	447.9403686523439	-995.514343261719	232.5451812744141	399.8382263183595	-1038.065185546875	-400.3929748535157	813.7168579101565	-584.2186889648439	-350.7490844726563	769.300720214844	-580.5683593750001	-320.2150268554688	779.5960693359377	-583.0188598632814	-359.2883911132813	685.2108764648439	-596.2235107421876	-367.3415222167969	542.8876953125001	-633.2280273437501	-313.2310180664063	546.7036743164064	-739.8750000000001	-322.6183166503907	334.0294189453126	-659.6246337890626	-405.408660888672	268.1201782226563	-677.7219238281251	-359.7507019042969	260.2434082031251	-669.2234497070314	-334.3619995117188	214.1457061767579	-698.8604125976564	-395.6578063964845	113.4454879760742	-699.9345092773439	-355.8188781738282	146.8005676269532	-773.0725708007815	-454.6174316406251	99.61596679687503	-765.4315185546876	-229.1697692871094	83.65115356445314	-756.5515747070314	-234.5687713623047	76.05773162841798	-710.4675292968751	-291.8030090332032	36.30374145507813	-677.3107299804689	-170.156967163086	1161.628784179688	-1071.278564453125	-388.5138244628907	1495.568115234375	-685.2748413085939	nan	nan	nan	nan	nan	nan	
1746	8.725	-272.9863281250001	1652.984741210938	-553.0586547851564	-396.345672607422	1740.516479492188	-685.5058593750001	-394.1101379394532	1709.419799804688	-546.6730957031251	-519.4766235351564	1585.177001953125	-668.3333129882814	-572.4383544921876	1269.6376953125	-736.5941162109376	-427.5846557617189	1588.102783203125	-856.352966308594	-466.6052856445314	1413.225463867188	-1017.654602050781	-419.490692138672	1406.431274414063	-1027.415405273438	-444.685028076172	1361.142822265625	-1057.694091796875	-419.6396789550782	1310.544189453125	-1094.945068359375	-441.3148498535157	1256.1904296875	-1032.276977539063	-197.9239654541016	1141.821533203125	-1139.45703125	-91.31142425537111	1129.88232421875	-1085.20947265625	-403.1278076171876	1530.642456054688	-500.5547790527345	-428.0250549316407	1291.118286132813	-470.034149169922	-380.6153259277344	1280.098876953125	-472.7307739257814	-406.2289123535157	1227.932250976563	-488.5057373046876	-381.4430236816407	1173.098022460938	-498.9820251464845	-382.6169128417969	1177.655517578125	-577.7418212890626	-158.8040466308594	975.2619628906252	-508.3586425781251	-221.8762207031251	934.9392089843752	-498.8462829589845	-116.2225570678711	907.592956542969	-463.907196044922	-406.6011047363282	1104.44287109375	-871.7165527343752	-393.3370971679689	1093.606079101563	-644.4678344726564	-586.9238891601564	1124.01708984375	-743.7889404296876	-589.0955200195314	1093.02490234375	-772.7438964843752	-586.4393920898439	1092.40869140625	-714.2626953125001	-289.8225402832032	902.4399414062502	-963.091491699219	-205.962387084961	888.245788574219	-970.4592285156252	-180.7638092041016	927.644958496094	-963.1190185546877	-177.2388763427735	834.0355224609377	-963.3739013671877	-81.74749755859376	766.4011230468751	-965.0286865234377	-30.26716423034669	770.031188964844	-857.6362304687502	51.65630340576173	679.0712890625001	-956.4253540039065	10.8921127319336	606.9268798828126	-989.4336547851565	49.38745880126955	625.2151489257814	-978.3652954101565	94.90911102294923	558.9514770507814	-940.415710449219	121.0798416137696	379.5225830078126	-968.575866699219	154.0699615478516	395.0481567382814	-888.2456054687502	117.5951004028321	289.9871826171876	-919.4583129882815	283.1517944335938	451.478485107422	-956.674743652344	266.0347900390626	449.8030395507814	-995.407897949219	234.7884216308594	401.6372680664064	-1037.881225585938	-400.1461486816407	813.7441406250002	-584.2725219726564	-350.3627929687501	769.1524047851565	-580.7103271484376	-319.9832458496094	779.5451660156252	-582.9984130859376	-358.8735046386719	684.9183959960939	-596.2941284179689	-366.7948608398438	542.7807006835939	-633.2553710937501	-312.8908386230469	546.6586914062501	-739.9592895507814	-322.3162231445313	333.8872070312501	-659.6849365234376	-405.132537841797	268.0776977539063	-677.7077026367189	-359.5581970214844	260.1543884277344	-669.2330322265626	-334.0878601074219	213.9743652343751	-698.9915161132814	-395.5181274414064	113.4569091796875	-699.9753417968751	-355.7088317871094	146.7337493896485	-773.1955566406252	-454.588348388672	99.59171295166018	-765.5063476562501	-229.0768585205079	83.48289489746095	-756.7864379882814	-234.4965972900391	75.92697906494142	-710.5372314453126	-291.7890625000001	36.31442260742188	-677.3413696289064	-170.7755737304688	1161.616333007813	-1071.477416992188	-388.2230224609376	1495.44482421875	-685.7526855468751	nan	nan	nan	nan	nan	nan	
1747	8.73	-272.5320434570313	1653.016235351563	-553.7886352539064	-395.8723754882814	1740.439086914063	-686.0521850585939	-393.5609130859376	1709.518188476563	-547.1938476562501	-519.3599243164064	1585.11279296875	-668.5573730468751	-572.7389526367189	1269.192993164063	-736.7503051757814	-427.7813415527345	1588.082153320313	-856.7393188476565	-467.006317138672	1413.143310546875	-1017.875854492188	-420.0521240234376	1406.379760742188	-1027.908081054688	-445.3649291992189	1361.004516601563	-1058.10498046875	-420.2596130371095	1310.453247070313	-1095.37109375	-442.002410888672	1256.0927734375	-1032.754028320313	-198.5000610351563	1142.0087890625	-1139.908569335938	-91.80751800537111	1129.911376953125	-1085.49462890625	-402.7533264160157	1530.462158203125	-500.9584045410157	-426.5198669433595	1291.0693359375	-470.2831420898439	-379.3252258300782	1280.184936523438	-473.2061462402345	-404.8692321777345	1227.926879882813	-488.803436279297	-379.7664794921876	1173.18603515625	-499.5596008300782	-380.9178771972657	1177.7822265625	-578.5486450195314	-156.5624542236328	975.986267089844	-509.7656555175782	-219.6894073486329	935.335876464844	-499.7984313964845	-113.5487976074219	908.3436279296877	-465.225067138672	-406.3860778808595	1104.565551757813	-871.7510375976565	-393.103240966797	1093.578979492188	-644.4988403320314	-586.7136230468751	1123.93310546875	-743.8505859375001	-588.8384399414064	1092.880859375	-772.7634277343752	-586.1978759765626	1092.289672851563	-714.2402343750001	-289.6778259277344	902.3980712890627	-963.0505371093752	-205.2992553710938	888.8504028320315	-970.306823730469	-180.1383514404297	928.2717285156252	-962.8513183593752	-176.3702392578125	834.8077392578127	-963.1297607421877	-80.7959671020508	767.3079833984376	-964.8498535156252	-29.44568824768067	771.045837402344	-857.4534301757815	52.89546585083009	679.6967163085939	-955.7767333984377	12.41891574859619	608.0558471679689	-989.5877075195315	50.76621627807619	626.7647094726564	-978.086853027344	96.33338928222659	560.2234497070314	-940.1899414062502	123.2903366088867	380.8559265136719	-968.888366699219	156.0214538574219	396.2812805175782	-888.2832641601565	119.6490859985352	291.4019165039063	-919.5635986328127	285.1390686035157	453.4219055175782	-956.4819335937502	267.8795166015626	451.6143798828126	-995.094665527344	236.8260192871094	403.5136718750001	-1037.8486328125	-399.7555236816407	813.6279907226565	-584.4020996093751	-349.9393920898438	769.015075683594	-580.9263916015626	-319.7800598144532	779.506286621094	-583.0161743164064	-358.5087890625001	685.1967163085939	-596.2635498046876	-366.6548461914063	542.4235839843751	-633.6581420898439	-312.4172058105469	546.5234985351564	-740.0567626953126	-321.9403076171876	333.7391052246094	-659.9100952148439	-404.8735961914064	268.1181945800782	-677.7581787109376	-359.2789306640626	260.0458374023438	-669.2762451171876	-333.9506530761719	213.919174194336	-699.1329345703126	-395.4168395996095	113.5430068969727	-700.0972900390626	-355.5955200195313	146.6790924072266	-773.3719482421877	-454.5016479492189	99.61006927490237	-765.4862670898439	-228.9342041015626	83.21612548828126	-756.9743652343751	-234.4229431152344	75.79658508300783	-710.6723632812501	-291.7508239746094	36.30916595458985	-677.3439941406251	-171.3649444580078	1161.6201171875	-1071.88818359375	-388.0447692871095	1495.426025390625	-686.2808227539064	nan	nan	nan	nan	nan	nan	
